<svg width="20" height="20" viewBox="0 0 20 20" fill="none" xmlns="http://www.w3.org/2000/svg">
<path fill-rule="evenodd" clip-rule="evenodd" d="M14.707 12.707C14.5195 12.8945 14.2652 12.9998 14 12.9998C13.7348 12.9998 13.4805 12.8945 13.293 12.707L10 9.41401L6.707 12.707C6.61475 12.8025 6.50441 12.8787 6.3824 12.9311C6.2604 12.9835 6.12918 13.0111 5.9964 13.0123C5.86362 13.0134 5.73194 12.9881 5.60905 12.9378C5.48615 12.8876 5.3745 12.8133 5.28061 12.7194C5.18671 12.6255 5.11246 12.5139 5.06218 12.391C5.0119 12.2681 4.9866 12.1364 4.98775 12.0036C4.9889 11.8708 5.01649 11.7396 5.0689 11.6176C5.12131 11.4956 5.19749 11.3853 5.293 11.293L9.293 7.29301C9.48053 7.10554 9.73484 7.00022 10 7.00022C10.2652 7.00022 10.5195 7.10554 10.707 7.29301L14.707 11.293C14.8945 11.4805 14.9998 11.7348 14.9998 12C14.9998 12.2652 14.8945 12.5195 14.707 12.707V12.707Z" fill="#0140FF"/>
</svg>
