<svg width="20" height="20" viewBox="0 0 20 20" fill="none" xmlns="http://www.w3.org/2000/svg">
<path d="M3.57741 3.57739C3.42113 3.73367 3.33333 3.94563 3.33333 4.16665V5.83331C3.33333 6.05433 3.42113 6.26629 3.57741 6.42257C3.73369 6.57885 3.94565 6.66665 4.16667 6.66665H15.8333C16.0543 6.66665 16.2663 6.57885 16.4226 6.42257C16.5789 6.26629 16.6667 6.05433 16.6667 5.83331V4.16665C16.6667 3.94563 16.5789 3.73367 16.4226 3.57739C16.2663 3.42111 16.0543 3.33331 15.8333 3.33331H4.16667C3.94565 3.33331 3.73369 3.42111 3.57741 3.57739Z" stroke="#646464" stroke-width="2" stroke-linecap="round" stroke-linejoin="round"/>
<path d="M3.57741 10.2441C3.42113 10.4003 3.33333 10.6123 3.33333 10.8333V15.8333C3.33333 16.0543 3.42113 16.2663 3.57741 16.4226C3.73369 16.5788 3.94565 16.6666 4.16667 16.6666H9.16667C9.38768 16.6666 9.59964 16.5788 9.75592 16.4226C9.9122 16.2663 10 16.0543 10 15.8333V10.8333C10 10.6123 9.9122 10.4003 9.75592 10.2441C9.59964 10.0878 9.38768 9.99998 9.16667 9.99998H4.16667C3.94565 9.99998 3.73369 10.0878 3.57741 10.2441Z" stroke="#646464" stroke-width="2" stroke-linecap="round" stroke-linejoin="round"/>
<path d="M13.5774 10.2441C13.4211 10.4003 13.3333 10.6123 13.3333 10.8333V15.8333C13.3333 16.0543 13.4211 16.2663 13.5774 16.4226C13.7337 16.5788 13.9457 16.6666 14.1667 16.6666H15.8333C16.0543 16.6666 16.2663 16.5788 16.4226 16.4226C16.5789 16.2663 16.6667 16.0543 16.6667 15.8333V10.8333C16.6667 10.6123 16.5789 10.4003 16.4226 10.2441C16.2663 10.0878 16.0543 9.99998 15.8333 9.99998H14.1667C13.9457 9.99998 13.7337 10.0878 13.5774 10.2441Z" stroke="#646464" stroke-width="2" stroke-linecap="round" stroke-linejoin="round"/>
</svg>
