<svg width="20" height="20" viewBox="0 0 20 20" fill="none" xmlns="http://www.w3.org/2000/svg">
<path d="M14.1667 11.6667V16.6667M11.6667 14.1667H16.6667M5 8.33334H6.66667C7.10869 8.33334 7.53262 8.15775 7.84518 7.84519C8.15774 7.53263 8.33333 7.1087 8.33333 6.66668V5.00001C8.33333 4.55798 8.15774 4.13406 7.84518 3.8215C7.53262 3.50894 7.10869 3.33334 6.66667 3.33334H5C4.55797 3.33334 4.13405 3.50894 3.82149 3.8215C3.50893 4.13406 3.33333 4.55798 3.33333 5.00001V6.66668C3.33333 7.1087 3.50893 7.53263 3.82149 7.84519C4.13405 8.15775 4.55797 8.33334 5 8.33334ZM13.3333 8.33334H15C15.442 8.33334 15.866 8.15775 16.1785 7.84519C16.4911 7.53263 16.6667 7.1087 16.6667 6.66668V5.00001C16.6667 4.55798 16.4911 4.13406 16.1785 3.8215C15.866 3.50894 15.442 3.33334 15 3.33334H13.3333C12.8913 3.33334 12.4674 3.50894 12.1548 3.8215C11.8423 4.13406 11.6667 4.55798 11.6667 5.00001V6.66668C11.6667 7.1087 11.8423 7.53263 12.1548 7.84519C12.4674 8.15775 12.8913 8.33334 13.3333 8.33334ZM5 16.6667H6.66667C7.10869 16.6667 7.53262 16.4911 7.84518 16.1785C8.15774 15.866 8.33333 15.442 8.33333 15V13.3333C8.33333 12.8913 8.15774 12.4674 7.84518 12.1548C7.53262 11.8423 7.10869 11.6667 6.66667 11.6667H5C4.55797 11.6667 4.13405 11.8423 3.82149 12.1548C3.50893 12.4674 3.33333 12.8913 3.33333 13.3333V15C3.33333 15.442 3.50893 15.866 3.82149 16.1785C4.13405 16.4911 4.55797 16.6667 5 16.6667Z" stroke="#646464" stroke-width="2" stroke-linecap="round" stroke-linejoin="round"/>
</svg>
